<?xml version="1.0" encoding="UTF-8" standalone="no"?>
<svg
   viewBox="0 0 32.91244 42.999999"
   version="1.1"
   id="svg2"
   sodipodi:docname="hyprland.svg"
   width="32.912441"
   height="43"
   inkscape:version="1.4 (e7c3feb100, 2024-10-09)"
   inkscape:export-filename="hyprland.png"
   inkscape:export-xdpi="96"
   inkscape:export-ydpi="96"
   xmlns:inkscape="http://www.inkscape.org/namespaces/inkscape"
   xmlns:sodipodi="http://sodipodi.sourceforge.net/DTD/sodipodi-0.dtd"
   xmlns="http://www.w3.org/2000/svg"
   xmlns:svg="http://www.w3.org/2000/svg">
  <sodipodi:namedview
     id="namedview2"
     pagecolor="#ffffff"
     bordercolor="#000000"
     borderopacity="0.25"
     inkscape:showpageshadow="2"
     inkscape:pageopacity="0.0"
     inkscape:pagecheckerboard="0"
     inkscape:deskcolor="#d1d1d1"
     inkscape:zoom="1.7274158"
     inkscape:cx="109.70144"
     inkscape:cy="48.917"
     inkscape:window-width="2560"
     inkscape:window-height="1371"
     inkscape:window-x="0"
     inkscape:window-y="0"
     inkscape:window-maximized="1"
     inkscape:current-layer="svg2" />
  <defs
     id="defs2">
    <style
       id="style1">
      .cls-3 {
        fill: url(#linear-gradient);
      }
    </style>
    <linearGradient
       id="linear-gradient"
       x1="8.9300003"
       y1="572.38"
       x2="572.67999"
       y2="102.08"
       gradientUnits="userSpaceOnUse"
       gradientTransform="matrix(0.06386643,0,0,0.06386643,-6.5130571e-4,0.00191599)">
      <stop
         offset="0"
         stop-color="#00a2f8"
         id="stop1" />
      <stop
         offset="1"
         stop-color="#00e5cf"
         id="stop2" />
    </linearGradient>
  </defs>
  <path
     class="cls-3"
     d="m 18.42673,0.00191599 c 0.127094,0.13475817 0.208204,0.19990193 0.264407,0.28228962 1.019946,1.50916379 2.024565,3.02982339 3.05984,4.52876859 0.595874,0.8628354 1.230068,1.6994857 1.866177,2.5335812 0.615034,0.8079104 1.264556,1.5889968 1.880228,2.3969071 0.712111,0.9343655 1.433801,1.8636225 2.095458,2.8331145 0.847507,1.242202 1.701401,2.486959 2.434588,3.796221 0.623336,1.113192 1.121494,2.302385 1.597938,3.489662 0.337215,0.840482 0.563302,1.728225 0.804717,2.604473 0.111766,0.40619 0.143061,0.834734 0.208205,1.253059 0.08047,0.512209 0.217145,1.024418 0.225448,1.537904 0.02235,1.337363 0.13859,2.679196 -0.09452,4.010811 -0.256743,1.46829 -0.686564,2.87399 -1.325867,4.229874 -0.646329,1.369935 -1.429331,2.635129 -2.387966,3.805801 -0.868584,1.060821 -1.88853,1.937069 -2.991504,2.740508 -0.809826,0.589487 -1.666275,1.0902 -2.577649,1.488088 -0.820045,0.357652 -1.664998,0.644412 -2.534858,0.887105 -1.963893,0.546696 -3.955248,0.666765 -5.960654,0.52562 C 13.781724,42.860761 12.558682,42.712591 11.40717,42.277661 10.46067,41.920009 9.5071441,41.566827 8.6021568,41.119762 7.8874914,40.76722 7.2028433,40.325264 6.5756749,39.832854 5.7530753,39.187164 4.9458036,38.503793 4.233693,37.741867 3.5956673,37.059773 3.0432227,36.281241 2.5476192,35.486743 2.0251918,34.648177 1.5647149,33.761711 1.1693816,32.855446 0.74211527,31.877012 0.4662123,30.846847 0.24140246,29.791774 -0.10858557,28.149768 0.00445801,26.506484 0.07598841,24.86831 0.11686292,23.927558 0.36530334,22.986167 0.60352512,22.067129 0.85452019,21.097636 1.1578857,20.134531 1.5257563,19.203358 1.8942656,18.270908 2.3221707,17.353786 2.8120262,16.479455 3.4270599,15.38223 4.1053214,14.317576 4.8046588,13.271444 5.4394912,12.321112 6.1254166,11.40399 6.8145354,10.491977 7.3695347,9.7575132 7.9749884,9.0607304 8.537013,8.3313758 9.1054242,7.5937185 9.6521209,6.839456 10.202011,6.0877481 10.783834,5.2919724 11.370128,4.49939 11.932152,3.6895637 12.644902,2.6632301 13.331466,1.6183753 14.037829,0.58757116 14.138737,0.4400397 14.28563,0.32316414 14.410808,0.19223795 c 0.02491,0.0140506 0.04982,0.0281012 0.07536,0.0421519 0.0051,0.11304358 0.01469,0.22608716 0.01469,0.33913074 6.39e-4,1.68160311 0.0096,3.36320611 -0.01086,5.04480921 -0.0032,0.2465245 -0.103464,0.5205114 -0.237583,0.7319093 -0.542865,0.8590035 -1.097864,1.7116204 -1.684797,2.5412453 -0.556276,0.7861957 -1.157259,1.5410966 -1.738444,2.3094096 -0.478998,0.632917 -0.9560803,1.266472 -1.4382718,1.896833 -0.3346601,0.437485 -0.6859255,0.862197 -1.0129216,1.30543 -0.4572836,0.620782 -0.9164833,1.242202 -1.343111,1.88406 -0.5147635,0.774061 -1.0212242,1.555786 -1.4836172,2.361142 -0.3308281,0.576075 -0.5914031,1.193663 -0.8679448,1.799117 -0.1532794,0.335938 -0.2944242,0.679539 -0.4061905,1.030804 -0.1979859,0.623337 -0.3563747,1.258808 -0.5543606,1.882144 -0.5569153,1.751218 -0.4387624,3.55289 -0.3142228,5.332847 0.063228,0.90371 0.3902239,1.79784 0.6642109,2.675365 0.3838372,1.22879 1.0423001,2.318351 1.7850667,3.368315 0.5070994,0.71722 1.082536,1.365464 1.7333349,1.938985 0.5358393,0.471334 1.1176625,0.904987 1.7288642,1.272219 0.6955056,0.417687 1.4197506,0.815575 2.1791226,1.0902 0.810465,0.293147 1.666914,0.510293 2.521447,0.618227 1.017392,0.128372 2.053944,0.100909 3.081555,0.149448 0.954164,0.04471 1.879589,-0.146254 2.805652,-0.328274 1.175781,-0.231196 2.250014,-0.738296 3.294231,-1.293934 1.248588,-0.66421 2.297914,-1.604963 3.216952,-2.665146 0.939475,-1.083813 1.728225,-2.302384 2.230215,-3.640386 0.529453,-1.411448 0.97077,-2.872074 0.90371,-4.423389 -0.0364,-0.838566 0.0096,-1.682242 -0.0677,-2.515699 -0.05684,-0.613756 -0.231197,-1.220487 -0.393417,-1.820193 C 28.901463,22.414562 28.70667,21.707561 28.442902,21.028661 28.180411,20.352315 27.845112,19.703432 27.515561,19.055188 27.223692,18.481029 26.920326,17.910702 26.579279,17.365282 26.164148,16.70171 25.724747,16.050272 25.258522,15.421827 24.552798,14.470217 23.806199,13.549263 23.092811,12.60404 22.257438,11.497235 21.423981,10.389152 20.616709,9.2619097 19.919927,8.2898626 19.255716,7.294185 18.591505,6.299146 18.484848,6.1394799 18.399906,5.9293594 18.39799,5.7422307 18.3833,3.9226761 18.38839,2.1031215 18.38969,0.28356695 18.38969,0.22289385 18.40502,0.16158207 18.42673,0 Z"
     id="path2"
     style="fill:url(#linear-gradient);stroke-width:0.0638664" />
</svg>
